<?xml version="1.0" encoding="UTF-8"?>
<svg xmlns="http://www.w3.org/2000/svg" viewBox="0 0 64 64">
  <rect x="4" y="4" width="56" height="56" rx="4" fill="#5c6470"/>
  <circle cx="32" cy="32" r="22" fill="#7a8189"/>
  <circle cx="32" cy="32" r="22" fill="none" stroke="#b89968" stroke-width="2.5"/>
  <line x1="32" y1="32" x2="12" y2="32" stroke="#5c6470" stroke-width="3.5" stroke-linecap="round"/>
  <line x1="32" y1="32" x2="42" y2="14.68" stroke="#5c6470" stroke-width="3.5" stroke-linecap="round"/>
  <line x1="32" y1="32" x2="42" y2="49.32" stroke="#5c6470" stroke-width="3.5" stroke-linecap="round"/>
  <line x1="12" y1="29" x2="12" y2="35" stroke="#5c6470" stroke-width="3" stroke-linecap="round"/>
  <line x1="39.4" y1="13.18" x2="44.6" y2="16.18" stroke="#5c6470" stroke-width="3" stroke-linecap="round"/>
  <line x1="39.4" y1="50.82" x2="44.6" y2="47.82" stroke="#5c6470" stroke-width="3" stroke-linecap="round"/>
  <line x1="32" y1="28" x2="32" y2="20" stroke="#5c6470" stroke-width="1.5" stroke-linecap="round"/>
  <line x1="28.54" y1="30" x2="21.6" y2="26" stroke="#5c6470" stroke-width="1.5" stroke-linecap="round"/>
  <line x1="28.54" y1="34" x2="21.6" y2="38" stroke="#5c6470" stroke-width="1.5" stroke-linecap="round"/>
  <line x1="32" y1="36" x2="32" y2="44" stroke="#5c6470" stroke-width="1.5" stroke-linecap="round"/>
  <line x1="35.46" y1="34" x2="42.4" y2="38" stroke="#5c6470" stroke-width="1.5" stroke-linecap="round"/>
  <line x1="35.46" y1="30" x2="42.4" y2="26" stroke="#5c6470" stroke-width="1.5" stroke-linecap="round"/>
  <circle cx="32" cy="32" r="4" fill="#b89968"/>
  <circle cx="10" cy="10" r="1.5" fill="#3e4650"/>
  <circle cx="54" cy="10" r="1.5" fill="#3e4650"/>
  <circle cx="10" cy="54" r="1.5" fill="#3e4650"/>
  <circle cx="54" cy="54" r="1.5" fill="#3e4650"/>
</svg>
